<svg version="1.1" style="position: absolute; width: 1033px; height: 352px;"><desc>JavaScript chart by amCharts 3.14.0</desc><g><path cs="100,100" d="M0.5,0.5 L1032.5,0.5 L1032.5,351.5 L0.5,351.5 Z" fill="#FFFFFF" stroke="#000000" fill-opacity="0" stroke-width="1" stroke-opacity="0"></path><path cs="100,100" d="M0.5,0.5 L973.5,0.5 L973.5,290.5 L0.5,290.5 L0.5,0.5 Z" fill="#FFFFFF" stroke="#000000" fill-opacity="0" stroke-width="1" stroke-opacity="0" transform="translate(39,10)"></path></g><g><g transform="translate(39,10)"><g><path cs="100,100" d="M0.5,0.5 L0.5,5.5" fill="none" stroke-width="1" stroke-opacity="1" stroke="#DADADA" transform="translate(0,290)"></path><path cs="100,100" d="M0.5,290.5 L0.5,290.5 L0.5,0.5" fill="none" stroke-width="1" stroke-opacity="0.07" stroke="#000000"></path></g><g><path cs="100,100" d="M73.5,0.5 L73.5,5.5" fill="none" stroke-width="1" stroke-opacity="1" stroke="#DADADA" transform="translate(0,290)"></path><path cs="100,100" d="M73.5,290.5 L73.5,290.5 L73.5,0.5" fill="none" stroke-width="1" stroke-opacity="0.07" stroke="#000000"></path></g><g><path cs="100,100" d="M146.5,0.5 L146.5,5.5" fill="none" stroke-width="1" stroke-opacity="1" stroke="#DADADA" transform="translate(0,290)"></path><path cs="100,100" d="M146.5,290.5 L146.5,290.5 L146.5,0.5" fill="none" stroke-width="1" stroke-opacity="0.07" stroke="#000000"></path></g><g><path cs="100,100" d="M220.5,0.5 L220.5,5.5" fill="none" stroke-width="1" stroke-opacity="1" stroke="#DADADA" transform="translate(0,290)"></path><path cs="100,100" d="M220.5,290.5 L220.5,290.5 L220.5,0.5" fill="none" stroke-width="1" stroke-opacity="0.07" stroke="#000000"></path></g><g><path cs="100,100" d="M293.5,0.5 L293.5,5.5" fill="none" stroke-width="1" stroke-opacity="1" stroke="#DADADA" transform="translate(0,290)"></path><path cs="100,100" d="M293.5,290.5 L293.5,290.5 L293.5,0.5" fill="none" stroke-width="1" stroke-opacity="0.07" stroke="#000000"></path></g><g><path cs="100,100" d="M366.5,0.5 L366.5,5.5" fill="none" stroke-width="1" stroke-opacity="1" stroke="#DADADA" transform="translate(0,290)"></path><path cs="100,100" d="M366.5,290.5 L366.5,290.5 L366.5,0.5" fill="none" stroke-width="1" stroke-opacity="0.07" stroke="#000000"></path></g><g><path cs="100,100" d="M439.5,0.5 L439.5,5.5" fill="none" stroke-width="1" stroke-opacity="1" stroke="#DADADA" transform="translate(0,290)"></path><path cs="100,100" d="M439.5,290.5 L439.5,290.5 L439.5,0.5" fill="none" stroke-width="1" stroke-opacity="0.07" stroke="#000000"></path></g><g><path cs="100,100" d="M513.5,0.5 L513.5,5.5" fill="none" stroke-width="1" stroke-opacity="1" stroke="#DADADA" transform="translate(0,290)"></path><path cs="100,100" d="M513.5,290.5 L513.5,290.5 L513.5,0.5" fill="none" stroke-width="1" stroke-opacity="0.07" stroke="#000000"></path></g><g><path cs="100,100" d="M586.5,0.5 L586.5,5.5" fill="none" stroke-width="1" stroke-opacity="1" stroke="#DADADA" transform="translate(0,290)"></path><path cs="100,100" d="M586.5,290.5 L586.5,290.5 L586.5,0.5" fill="none" stroke-width="1" stroke-opacity="0.07" stroke="#000000"></path></g><g><path cs="100,100" d="M659.5,0.5 L659.5,5.5" fill="none" stroke-width="1" stroke-opacity="1" stroke="#DADADA" transform="translate(0,290)"></path><path cs="100,100" d="M659.5,290.5 L659.5,290.5 L659.5,0.5" fill="none" stroke-width="1" stroke-opacity="0.07" stroke="#000000"></path></g><g><path cs="100,100" d="M732.5,0.5 L732.5,5.5" fill="none" stroke-width="1" stroke-opacity="1" stroke="#DADADA" transform="translate(0,290)"></path><path cs="100,100" d="M732.5,290.5 L732.5,290.5 L732.5,0.5" fill="none" stroke-width="1" stroke-opacity="0.07" stroke="#000000"></path></g><g><path cs="100,100" d="M806.5,0.5 L806.5,5.5" fill="none" stroke-width="1" stroke-opacity="1" stroke="#DADADA" transform="translate(0,290)"></path><path cs="100,100" d="M806.5,290.5 L806.5,290.5 L806.5,0.5" fill="none" stroke-width="1" stroke-opacity="0.07" stroke="#000000"></path></g><g><path cs="100,100" d="M879.5,0.5 L879.5,5.5" fill="none" stroke-width="1" stroke-opacity="1" stroke="#DADADA" transform="translate(0,290)"></path><path cs="100,100" d="M879.5,290.5 L879.5,290.5 L879.5,0.5" fill="none" stroke-width="1" stroke-opacity="0.07" stroke="#000000"></path></g><g><path cs="100,100" d="M952.5,0.5 L952.5,5.5" fill="none" stroke-width="1" stroke-opacity="1" stroke="#DADADA" transform="translate(0,290)"></path><path cs="100,100" d="M952.5,290.5 L952.5,290.5 L952.5,0.5" fill="none" stroke-width="1" stroke-opacity="0.07" stroke="#000000"></path></g></g><g transform="translate(39,10)" visibility="visible"><g><path cs="100,100" d="M0.5,290.5 L5.5,290.5" fill="none" stroke-width="1" stroke-opacity="1" stroke="#000000" transform="translate(-6,0)"></path><path cs="100,100" d="M0.5,290.5 L0.5,290.5 L973.5,290.5" fill="none" stroke-width="1" stroke-opacity="0.07" stroke="#000000"></path></g><g><path cs="100,100" d="M0.5,218.5 L5.5,218.5" fill="none" stroke-width="1" stroke-opacity="1" stroke="#000000" transform="translate(-6,0)"></path><path cs="100,100" d="M0.5,218.5 L0.5,218.5 L973.5,218.5" fill="none" stroke-width="1" stroke-opacity="0.07" stroke="#000000"></path></g><g><path cs="100,100" d="M0.5,145.5 L5.5,145.5" fill="none" stroke-width="1" stroke-opacity="1" stroke="#000000" transform="translate(-6,0)"></path><path cs="100,100" d="M0.5,145.5 L0.5,145.5 L973.5,145.5" fill="none" stroke-width="1" stroke-opacity="0.07" stroke="#000000"></path></g><g><path cs="100,100" d="M0.5,73.5 L5.5,73.5" fill="none" stroke-width="1" stroke-opacity="1" stroke="#000000" transform="translate(-6,0)"></path><path cs="100,100" d="M0.5,73.5 L0.5,73.5 L973.5,73.5" fill="none" stroke-width="1" stroke-opacity="0.07" stroke="#000000"></path></g><g><path cs="100,100" d="M0.5,0.5 L5.5,0.5" fill="none" stroke-width="1" stroke-opacity="1" stroke="#000000" transform="translate(-6,0)"></path><path cs="100,100" d="M0.5,0.5 L0.5,0.5 L973.5,0.5" fill="none" stroke-width="1" stroke-opacity="0.07" stroke="#000000"></path></g></g></g><g></g><g></g><g></g><g></g><g><g transform="translate(39,10)"><g></g><g></g><g clip-path="url(#AmChartsEl-43)"><path cs="100,100" d="M0.5,211.5 L10.5,211.5 L21.5,212.5 L31.5,212.5 L42.5,214.5 L52.5,222.5 L63.5,222.5 L73.5,223.5 L84.5,223.5 L94.5,223.5 L105.5,225.5 L115.5,225.5 L126.5,226.5 L136.5,228.5 L146.5,228.5 L157.5,228.5 L167.5,229.5 L178.5,229.5 L188.5,229.5 L199.5,240.5 L209.5,240.5 L220.5,241.5 L230.5,242.5 L241.5,242.5 L251.5,242.5 L262.5,245.5 L272.5,259.5 L282.5,259.5 L293.5,265.5 L303.5,266.5 L314.5,269.5 L324.5,269.5 L335.5,269.5 L345.5,275.5 L356.5,276.5 L366.5,279.5 L377.5,283.5 L387.5,283.5 L398.5,283.5 L408.5,283.5 L418.5,283.5 L429.5,285.5 L439.5,286.5 L450.5,288.5 L460.5,289.5 L471.5,290.5 L481.5,290.5 L492.5,290.5 L502.5,290.5 L513.5,290.5 L523.5,290.5 L534.5,290.5 L544.5,290.5 L555.5,290.5 L565.5,290.5 L575.5,290.5 L586.5,290.5 L596.5,290.5 L607.5,290.5 L617.5,290.5 L628.5,290.5 L638.5,290.5 L649.5,290.5 L659.5,290.5 L670.5,290.5 L680.5,290.5 L691.5,290.5 L701.5,290.5 L711.5,290.5 L722.5,290.5 L732.5,290.5 L743.5,290.5 L753.5,290.5 L764.5,290.5 L774.5,290.5 L785.5,290.5 L795.5,290.5 L806.5,290.5 L816.5,290.5 L827.5,290.5 L837.5,290.5 L847.5,290.5 L858.5,290.5 L868.5,290.5 L879.5,290.5 L889.5,290.5 L900.5,290.5 L910.5,290.5 L921.5,290.5 L931.5,290.5 L942.5,290.5 L952.5,290.5 L963.5,290.5 L973.5,290.5 M0,0 L0,0" fill="none" stroke-width="1" stroke-opacity="0.4" stroke="#7dbc7d"></path><path cs="100,100" d="M0.5,211.5 L10.5,211.5 L21.5,212.5 L31.5,212.5 L42.5,214.5 L52.5,222.5 L63.5,222.5 L73.5,223.5 L84.5,223.5 L94.5,223.5 L105.5,225.5 L115.5,225.5 L126.5,226.5 L136.5,228.5 L146.5,228.5 L157.5,228.5 L167.5,229.5 L178.5,229.5 L188.5,229.5 L199.5,240.5 L209.5,240.5 L220.5,241.5 L230.5,242.5 L241.5,242.5 L251.5,242.5 L262.5,245.5 L272.5,259.5 L282.5,259.5 L293.5,265.5 L303.5,266.5 L314.5,269.5 L324.5,269.5 L335.5,269.5 L345.5,275.5 L356.5,276.5 L366.5,279.5 L377.5,283.5 L387.5,283.5 L398.5,283.5 L408.5,283.5 L418.5,283.5 L429.5,285.5 L439.5,286.5 L450.5,288.5 L460.5,289.5 L471.5,290.5 L481.5,290.5 L492.5,290.5 L502.5,290.5 L513.5,290.5 L523.5,290.5 L534.5,290.5 L544.5,290.5 L555.5,290.5 L565.5,290.5 L575.5,290.5 L586.5,290.5 L596.5,290.5 L607.5,290.5 L617.5,290.5 L628.5,290.5 L638.5,290.5 L649.5,290.5 L659.5,290.5 L670.5,290.5 L680.5,290.5 L691.5,290.5 L701.5,290.5 L711.5,290.5 L722.5,290.5 L732.5,290.5 L743.5,290.5 L753.5,290.5 L764.5,290.5 L774.5,290.5 L785.5,290.5 L795.5,290.5 L806.5,290.5 L816.5,290.5 L827.5,290.5 L837.5,290.5 L847.5,290.5 L858.5,290.5 L868.5,290.5 L879.5,290.5 L889.5,290.5 L900.5,290.5 L910.5,290.5 L921.5,290.5 L931.5,290.5 L942.5,290.5 L952.5,290.5 L963.5,290.5 L973.5,290.5 L973.5,290.5 L963.5,290.5 L952.5,290.5 L942.5,290.5 L931.5,290.5 L921.5,290.5 L910.5,290.5 L900.5,290.5 L889.5,290.5 L879.5,290.5 L868.5,290.5 L858.5,290.5 L847.5,290.5 L837.5,290.5 L827.5,290.5 L816.5,290.5 L806.5,290.5 L795.5,290.5 L785.5,290.5 L774.5,290.5 L764.5,290.5 L753.5,290.5 L743.5,290.5 L732.5,290.5 L722.5,290.5 L711.5,290.5 L701.5,290.5 L691.5,290.5 L680.5,290.5 L670.5,290.5 L659.5,290.5 L649.5,290.5 L638.5,290.5 L628.5,290.5 L617.5,290.5 L607.5,290.5 L596.5,290.5 L586.5,290.5 L575.5,290.5 L565.5,290.5 L555.5,290.5 L544.5,290.5 L534.5,290.5 L523.5,290.5 L513.5,290.5 L502.5,290.5 L492.5,290.5 L481.5,290.5 L471.5,290.5 L460.5,290.5 L450.5,290.5 L439.5,290.5 L429.5,290.5 L418.5,290.5 L408.5,290.5 L398.5,290.5 L387.5,290.5 L377.5,290.5 L366.5,290.5 L356.5,290.5 L345.5,290.5 L335.5,290.5 L324.5,290.5 L314.5,290.5 L303.5,290.5 L293.5,290.5 L282.5,290.5 L272.5,290.5 L262.5,290.5 L251.5,290.5 L241.5,290.5 L230.5,290.5 L220.5,290.5 L209.5,290.5 L199.5,290.5 L188.5,290.5 L178.5,290.5 L167.5,290.5 L157.5,290.5 L146.5,290.5 L136.5,290.5 L126.5,290.5 L115.5,290.5 L105.5,290.5 L94.5,290.5 L84.5,290.5 L73.5,290.5 L63.5,290.5 L52.5,290.5 L42.5,290.5 L31.5,290.5 L21.5,290.5 L10.5,290.5 L0.5,290.5 Z" fill="#7dbc7d" stroke="#000" fill-opacity="0.6" stroke-width="1" stroke-opacity="0"></path></g><clipPath id="AmChartsEl-43"><rect x="0" y="0" width="975" height="292" rx="0" ry="0" stroke-width="0"></rect></clipPath></g><g transform="translate(39,10)"><g></g><g></g><g clip-path="url(#AmChartsEl-44)"><path cs="100,100" d="M0.5,211.5 L10.5,211.5 L21.5,212.5 L31.5,212.5 L42.5,214.5 L52.5,222.5 L63.5,222.5 L73.5,223.5 L84.5,223.5 L94.5,223.5 L105.5,225.5 L115.5,225.5 L126.5,226.5 L136.5,228.5 L146.5,228.5 L157.5,228.5 L167.5,229.5 L178.5,229.5 L188.5,229.5 L199.5,240.5 L209.5,240.5 L220.5,241.5 L230.5,242.5 L241.5,242.5 L251.5,242.5 L262.5,245.5 L272.5,259.5 L282.5,259.5 L293.5,265.5 L303.5,266.5 L314.5,269.5 L324.5,269.5 L335.5,269.5 L345.5,275.5 L356.5,276.5 L366.5,279.5 L377.5,283.5 L387.5,283.5 L398.5,283.5 L408.5,283.5 L418.5,283.5 L429.5,285.5 L439.5,286.5 L450.5,288.5 L460.5,289.5 L471.5,288.5 L481.5,288.5 L492.5,288.5 L502.5,288.5 L513.5,277.5 L523.5,275.5 L534.5,275.5 L544.5,274.5 L555.5,273.5 L565.5,273.5 L575.5,272.5 L586.5,268.5 L596.5,268.5 L607.5,265.5 L617.5,264.5 L628.5,261.5 L638.5,261.5 L649.5,260.5 L659.5,259.5 L670.5,259.5 L680.5,257.5 L691.5,254.5 L701.5,252.5 L711.5,240.5 L722.5,240.5 L732.5,236.5 L743.5,236.5 L753.5,235.5 L764.5,234.5 L774.5,233.5 L785.5,229.5 L795.5,182.5 L806.5,179.5 L816.5,168.5 L827.5,162.5 L837.5,160.5 L847.5,142.5 L858.5,141.5 L868.5,137.5 L879.5,134.5 L889.5,131.5 L900.5,116.5 L910.5,103.5 L921.5,31.5 L931.5,29.5 L942.5,21.5 L952.5,19.5 L963.5,18.5 L973.5,17.5 M0,0 L0,0" fill="none" stroke-width="1" stroke-opacity="0.4" stroke="#db4c3c"></path><path cs="100,100" d="M0.5,211.5 L10.5,211.5 L21.5,212.5 L31.5,212.5 L42.5,214.5 L52.5,222.5 L63.5,222.5 L73.5,223.5 L84.5,223.5 L94.5,223.5 L105.5,225.5 L115.5,225.5 L126.5,226.5 L136.5,228.5 L146.5,228.5 L157.5,228.5 L167.5,229.5 L178.5,229.5 L188.5,229.5 L199.5,240.5 L209.5,240.5 L220.5,241.5 L230.5,242.5 L241.5,242.5 L251.5,242.5 L262.5,245.5 L272.5,259.5 L282.5,259.5 L293.5,265.5 L303.5,266.5 L314.5,269.5 L324.5,269.5 L335.5,269.5 L345.5,275.5 L356.5,276.5 L366.5,279.5 L377.5,283.5 L387.5,283.5 L398.5,283.5 L408.5,283.5 L418.5,283.5 L429.5,285.5 L439.5,286.5 L450.5,288.5 L460.5,289.5 L471.5,288.5 L481.5,288.5 L492.5,288.5 L502.5,288.5 L513.5,277.5 L523.5,275.5 L534.5,275.5 L544.5,274.5 L555.5,273.5 L565.5,273.5 L575.5,272.5 L586.5,268.5 L596.5,268.5 L607.5,265.5 L617.5,264.5 L628.5,261.5 L638.5,261.5 L649.5,260.5 L659.5,259.5 L670.5,259.5 L680.5,257.5 L691.5,254.5 L701.5,252.5 L711.5,240.5 L722.5,240.5 L732.5,236.5 L743.5,236.5 L753.5,235.5 L764.5,234.5 L774.5,233.5 L785.5,229.5 L795.5,182.5 L806.5,179.5 L816.5,168.5 L827.5,162.5 L837.5,160.5 L847.5,142.5 L858.5,141.5 L868.5,137.5 L879.5,134.5 L889.5,131.5 L900.5,116.5 L910.5,103.5 L921.5,31.5 L931.5,29.5 L942.5,21.5 L952.5,19.5 L963.5,18.5 L973.5,17.5 L973.5,290.5 L963.5,290.5 L952.5,290.5 L942.5,290.5 L931.5,290.5 L921.5,290.5 L910.5,290.5 L900.5,290.5 L889.5,290.5 L879.5,290.5 L868.5,290.5 L858.5,290.5 L847.5,290.5 L837.5,290.5 L827.5,290.5 L816.5,290.5 L806.5,290.5 L795.5,290.5 L785.5,290.5 L774.5,290.5 L764.5,290.5 L753.5,290.5 L743.5,290.5 L732.5,290.5 L722.5,290.5 L711.5,290.5 L701.5,290.5 L691.5,290.5 L680.5,290.5 L670.5,290.5 L659.5,290.5 L649.5,290.5 L638.5,290.5 L628.5,290.5 L617.5,290.5 L607.5,290.5 L596.5,290.5 L586.5,290.5 L575.5,290.5 L565.5,290.5 L555.5,290.5 L544.5,290.5 L534.5,290.5 L523.5,290.5 L513.5,290.5 L502.5,290.5 L492.5,290.5 L481.5,290.5 L471.5,290.5 L460.5,289.5 L450.5,288.5 L439.5,286.5 L429.5,285.5 L418.5,283.5 L408.5,283.5 L398.5,283.5 L387.5,283.5 L377.5,283.5 L366.5,279.5 L356.5,276.5 L345.5,275.5 L335.5,269.5 L324.5,269.5 L314.5,269.5 L303.5,266.5 L293.5,265.5 L282.5,259.5 L272.5,259.5 L262.5,245.5 L251.5,242.5 L241.5,242.5 L230.5,242.5 L220.5,241.5 L209.5,240.5 L199.5,240.5 L188.5,229.5 L178.5,229.5 L167.5,229.5 L157.5,228.5 L146.5,228.5 L136.5,228.5 L126.5,226.5 L115.5,225.5 L105.5,225.5 L94.5,223.5 L84.5,223.5 L73.5,223.5 L63.5,222.5 L52.5,222.5 L42.5,214.5 L31.5,212.5 L21.5,212.5 L10.5,211.5 L0.5,211.5 Z" fill="#db4c3c" stroke="#000" fill-opacity="0.6" stroke-width="1" stroke-opacity="0"></path></g><clipPath id="AmChartsEl-44"><rect x="0" y="0" width="975" height="292" rx="0" ry="0" stroke-width="0"></rect></clipPath></g></g><g clip-path="url(#AmChartsEl-42)"></g><g><path cs="100,100" d="M0.5,290.5 L973.5,290.5 L973.5,290.5" fill="none" stroke-width="1" stroke-opacity="0.14" stroke="#000000" transform="translate(39,10)"></path><g><path cs="100,100" d="M0.5,0.5 L973.5,0.5" fill="none" stroke-width="1" stroke-opacity="1" stroke="#DADADA" transform="translate(39,300)"></path></g><g><path cs="100,100" d="M0.5,0.5 L0.5,290.5" fill="none" stroke-width="1" stroke-opacity="1" stroke="#000000" transform="translate(39,10)" visibility="visible"></path></g></g><g><g transform="translate(39,10)" visibility="hidden"><path cs="100,100" d="M0.5,0.5 L0.5,0.5 L0.5,290.5" fill="none" stroke-width="1" stroke-opacity="0" stroke="#CC0000" visibility="hidden"></path></g></g><g></g><g><g transform="translate(39,10)"></g><g transform="translate(39,10)"></g></g><g><g transform="translate(39,10)"><text y="6" fill="#000000" font-family="Verdana" font-size="11" opacity="1" text-anchor="middle" transform="translate(-24,312) rotate(-30)"><tspan y="6" x="0" style="font-size: 11px;">0.00000147</tspan></text><text y="6" fill="#000000" font-family="Verdana" font-size="11" opacity="1" text-anchor="middle" transform="translate(49,312) rotate(-30)"><tspan y="6" x="0" style="font-size: 11px;">0.00000154</tspan></text><text y="6" fill="#000000" font-family="Verdana" font-size="11" opacity="1" text-anchor="middle" transform="translate(123,311) rotate(-30)"><tspan y="6" x="0" style="font-size: 11px;">0.00000162</tspan></text><text y="6" fill="#000000" font-family="Verdana" font-size="11" opacity="1" text-anchor="middle" transform="translate(196,312) rotate(-30)"><tspan y="6" x="0" style="font-size: 11px;">0.00000169</tspan></text><text y="6" fill="#000000" font-family="Verdana" font-size="11" opacity="1" text-anchor="middle" transform="translate(269,312) rotate(-30)"><tspan y="6" x="0" style="font-size: 11px;">0.00000176</tspan></text><text y="6" fill="#000000" font-family="Verdana" font-size="11" opacity="1" text-anchor="middle" transform="translate(342,312) rotate(-30)"><tspan y="6" x="0" style="font-size: 11px;">0.00000183</tspan></text><text y="6" fill="#000000" font-family="Verdana" font-size="11" opacity="1" text-anchor="middle" transform="translate(415,312) rotate(-30)"><tspan y="6" x="0" style="font-size: 11px;">0.00000190</tspan></text><text y="6" fill="#000000" font-family="Verdana" font-size="11" opacity="1" text-anchor="middle" transform="translate(489,312) rotate(-30)"><tspan y="6" x="0" style="font-size: 11px;">0.00000199</tspan></text><text y="6" fill="#000000" font-family="Verdana" font-size="11" opacity="1" text-anchor="middle" transform="translate(562,312) rotate(-30)"><tspan y="6" x="0" style="font-size: 11px;">0.00000208</tspan></text><text y="6" fill="#000000" font-family="Verdana" font-size="11" opacity="1" text-anchor="middle" transform="translate(635,312) rotate(-30)"><tspan y="6" x="0" style="font-size: 11px;">0.00000215</tspan></text><text y="6" fill="#000000" font-family="Verdana" font-size="11" opacity="1" text-anchor="middle" transform="translate(709,311) rotate(-30)"><tspan y="6" x="0" style="font-size: 11px;">0.00000222</tspan></text><text y="6" fill="#000000" font-family="Verdana" font-size="11" opacity="1" text-anchor="middle" transform="translate(782,312) rotate(-30)"><tspan y="6" x="0" style="font-size: 11px;">0.00000229</tspan></text><text y="6" fill="#000000" font-family="Verdana" font-size="11" opacity="1" text-anchor="middle" transform="translate(855,312) rotate(-30)"><tspan y="6" x="0" style="font-size: 11px;">0.00000236</tspan></text><text y="6" fill="#000000" font-family="Verdana" font-size="11" opacity="1" text-anchor="middle" transform="translate(928,312) rotate(-30)"><tspan y="6" x="0" style="font-size: 11px;">0.00000243</tspan></text></g><g transform="translate(39,10)" visibility="visible"><text y="6" fill="#000000" font-family="Verdana" font-size="11" opacity="1" text-anchor="end" transform="translate(-12,288)"><tspan y="6" x="0" style="font-size: 11px;">0</tspan></text><text y="6" fill="#000000" font-family="Verdana" font-size="11" opacity="1" text-anchor="end" transform="translate(-12,216)"><tspan y="6" x="0" style="font-size: 11px;">5</tspan></text><text y="6" fill="#000000" font-family="Verdana" font-size="11" opacity="1" text-anchor="end" transform="translate(-12,143)"><tspan y="6" x="0" style="font-size: 11px;">10</tspan></text><text y="6" fill="#000000" font-family="Verdana" font-size="11" opacity="1" text-anchor="end" transform="translate(-12,71)"><tspan y="6" x="0" style="font-size: 11px;">15</tspan></text><text y="6" fill="#000000" font-family="Verdana" font-size="11" opacity="1" text-anchor="end" transform="translate(-12,-2)"><tspan y="6" x="0" style="font-size: 11px;">20</tspan></text></g></g><g><g></g></g><g></g><g><g transform="translate(959,18)" visibility="hidden"><rect x="0.5" y="0.5" width="62" height="26" rx="0" ry="0" stroke-width="1" fill="#e5e5e5" stroke="#e5e5e5" fill-opacity="1" stroke-opacity="1" opacity="0" transform="translate(-8,-8)"></rect><text y="6" fill="#000000" font-family="Verdana" font-size="11" opacity="1" text-anchor="start" transform="translate(0,6)"><tspan y="6" x="0" style="font-size: 11px;">Show all</tspan></text></g></g><g></g><clipPath id="AmChartsEl-42"><rect x="39" y="10" width="973" height="290" rx="0" ry="0" stroke-width="0"></rect></clipPath></svg>
